<?xml version="1.0" encoding="UTF-8" standalone="no"?>
<!-- Generator: Adobe Illustrator 16.0.0, SVG Export Plug-In . SVG Version: 6.00 Build 0)  -->

<svg
   xmlns:dc="http://purl.org/dc/elements/1.1/"
   xmlns:cc="http://creativecommons.org/ns#"
   xmlns:rdf="http://www.w3.org/1999/02/22-rdf-syntax-ns#"
   xmlns:svg="http://www.w3.org/2000/svg"
   xmlns="http://www.w3.org/2000/svg"
   xmlns:sodipodi="http://sodipodi.sourceforge.net/DTD/sodipodi-0.dtd"
   xmlns:inkscape="http://www.inkscape.org/namespaces/inkscape"
   version="1.1"
   id="Layer_1"
   x="0px"
   y="0px"
   width="349.712px"
   height="146.892px"
   viewBox="0 0 349.712 146.892"
   enable-background="new 0 0 349.712 146.892"
   xml:space="preserve"
   inkscape:version="0.48.2 r9819"
   sodipodi:docname="letterhead-full.svg"><metadata
   id="metadata111"><rdf:RDF><cc:Work
       rdf:about=""><dc:format>image/svg+xml</dc:format><dc:type
         rdf:resource="http://purl.org/dc/dcmitype/StillImage" /></cc:Work></rdf:RDF></metadata><defs
   id="defs109">
	

		
		
		
		
		
		
		
		
		
		
		
		
		
		
		
		
		
		
		
		
		
		
		
		
		
		
		
	</defs><sodipodi:namedview
   pagecolor="#ffffff"
   bordercolor="#666666"
   borderopacity="1"
   objecttolerance="10"
   gridtolerance="10"
   guidetolerance="10"
   inkscape:pageopacity="0"
   inkscape:pageshadow="2"
   inkscape:window-width="1676"
   inkscape:window-height="1006"
   id="namedview107"
   showgrid="false"
   inkscape:zoom="2.8469321"
   inkscape:cx="99.421342"
   inkscape:cy="92.043148"
   inkscape:window-x="4"
   inkscape:window-y="0"
   inkscape:window-maximized="1"
   inkscape:current-layer="Layer_1" />

<g
   id="g3">
	<g
   id="g5">
		<path
   style="fill:#febe10"
   inkscape:connector-curvature="0"
   d="m 62.281,89.811 c 0.42,0.357 1.171,0.455 1.669,0.219 L 87.026,79.04 c 0.497,-0.237 0.463,-0.523 -0.077,-0.635 L 37.467,68.098 c -0.54,-0.112 -0.638,0.088 -0.218,0.445 l 25.032,21.268 z"
   id="path7" />
	</g>
	<g
   id="g9">
		<path
   style="fill:#febe10"
   inkscape:connector-curvature="0"
   d="m 62.229,64.84 c 0.044,0.593 0.537,1.243 1.096,1.445 l 25.9,9.396 c 0.559,0.202 0.752,-0.041 0.43,-0.54 L 60.126,29.36 c -0.322,-0.499 -0.55,-0.423 -0.506,0.169 l 2.609,35.311 z"
   id="path11" />
	</g>
	<g
   id="g13">
		<path
   style="fill:#febe10"
   inkscape:connector-curvature="0"
   d="m 88.204,102.287 c 0.506,-0.104 1.015,-0.6 1.129,-1.104 L 94.192,79.74 c 0.114,-0.504 -0.116,-0.645 -0.512,-0.312 l -33.42,28.038 c -0.396,0.332 -0.306,0.521 0.201,0.418 l 27.743,-5.597 z"
   id="path15" />
	</g>
	<g
   id="g17">
		<path
   style="fill:#ffffff"
   inkscape:connector-curvature="0"
   d="m 69.718,59.771 -6.504,3.249 c -0.301,-0.645 -0.693,-1.19 -1.165,-1.629 -0.476,-0.438 -0.984,-0.802 -1.525,-1.092 -0.541,-0.289 -1.1,-0.487 -1.679,-0.611 -0.574,-0.115 -1.1,-0.174 -1.57,-0.174 -0.509,0 -1.025,0.042 -1.55,0.125 -0.526,0.082 -1.001,0.247 -1.423,0.487 -0.426,0.231 -0.772,0.579 -1.041,1.042 -0.273,0.455 -0.409,1.033 -0.409,1.752 0,0.505 0.169,1.075 0.509,1.695 0.338,0.629 0.896,1.149 1.678,1.555 0.136,0.066 0.268,0.141 0.404,0.223 0.138,0.091 0.273,0.166 0.406,0.232 0.715,0.371 1.426,0.743 2.137,1.115 0.711,0.372 1.422,0.728 2.133,1.066 0.17,0.107 0.38,0.215 0.633,0.331 0.256,0.124 0.467,0.231 0.637,0.331 0.306,0.141 0.641,0.297 1.017,0.479 0.372,0.191 0.69,0.373 0.963,0.537 1.05,0.613 1.914,1.273 2.593,1.984 0.677,0.711 1.198,1.465 1.575,2.258 0.37,0.793 0.632,1.612 0.784,2.439 0.152,0.826 0.228,1.652 0.228,2.463 0,0.984 -0.115,1.918 -0.355,2.82 -0.235,0.893 -0.624,1.735 -1.165,2.513 -0.542,0.776 -1.262,1.505 -2.159,2.183 -0.9,0.678 -2.009,1.273 -3.327,1.777 -0.306,0.107 -0.661,0.207 -1.066,0.307 -0.409,0.099 -0.831,0.182 -1.273,0.23 -0.438,0.05 -0.889,0.092 -1.343,0.125 -0.459,0.033 -0.855,0.049 -1.195,0.049 -0.405,0 -0.735,-0.008 -0.992,-0.024 -0.252,-0.017 -0.504,-0.033 -0.761,-0.05 -0.252,-0.017 -0.467,-0.041 -0.633,-0.074 -0.78,-0.1 -1.619,-0.289 -2.518,-0.562 -0.896,-0.273 -1.785,-0.652 -2.665,-1.141 -0.882,-0.488 -1.72,-1.1 -2.515,-1.828 -0.798,-0.727 -1.483,-1.604 -2.059,-2.62 -0.098,-0.165 -0.211,-0.364 -0.329,-0.579 -0.116,-0.223 -0.229,-0.43 -0.327,-0.637 l 6.35,-3.199 h 0.148 c 0.307,0.645 0.694,1.182 1.171,1.621 0.475,0.445 0.983,0.801 1.523,1.074 0.543,0.265 1.093,0.463 1.65,0.579 0.558,0.124 1.075,0.182 1.55,0.182 0.542,0 1.075,-0.041 1.601,-0.132 0.524,-0.083 0.996,-0.24 1.422,-0.48 0.421,-0.239 0.77,-0.578 1.041,-1.016 0.269,-0.439 0.405,-1.018 0.405,-1.729 0,-1.455 -1,-2.688 -2.996,-3.704 C 57.632,75.28 57.409,75.164 57.07,74.982 56.73,74.793 56.359,74.593 55.954,74.371 55.549,74.149 55.115,73.925 54.66,73.684 54.201,73.445 53.805,73.246 53.466,73.073 53.329,73.007 53.144,72.916 52.908,72.801 52.668,72.676 52.449,72.585 52.247,72.52 51.94,72.346 51.609,72.172 51.254,71.982 50.899,71.8 50.551,71.618 50.217,71.454 49.166,70.874 48.302,70.222 47.625,69.494 46.946,68.766 46.414,68.006 46.024,67.212 45.631,66.41 45.363,65.601 45.21,64.774 45.059,63.939 44.983,63.121 44.983,62.31 c 0,-0.066 0.017,-0.355 0.049,-0.868 0.033,-0.505 0.084,-0.942 0.153,-1.314 0.033,-0.108 0.066,-0.248 0.104,-0.438 0.033,-0.182 0.082,-0.363 0.148,-0.529 0.07,-0.174 0.161,-0.389 0.281,-0.661 0.12,-0.272 0.244,-0.521 0.381,-0.761 0.306,-0.578 0.693,-1.107 1.17,-1.604 0.471,-0.488 0.979,-0.935 1.521,-1.348 0.542,-0.405 1.096,-0.761 1.653,-1.066 0.559,-0.299 1.093,-0.537 1.601,-0.711 0.777,-0.266 1.591,-0.463 2.438,-0.579 0.844,-0.124 1.658,-0.182 2.439,-0.182 0.372,0.033 0.682,0.058 0.938,0.074 0.252,0.024 0.517,0.041 0.785,0.058 0.272,0.017 0.492,0.025 0.661,0.025 0.777,0.099 1.616,0.289 2.514,0.554 0.896,0.272 1.785,0.661 2.666,1.174 0.881,0.505 1.72,1.124 2.518,1.853 0.794,0.727 1.479,1.578 2.055,2.562 0.069,0.174 0.169,0.372 0.307,0.611 0.133,0.238 0.253,0.437 0.353,0.611 z"
   id="path19" />
		<path
   style="fill:#ffffff"
   inkscape:connector-curvature="0"
   d="m 105.682,64.847 c 0,1.521 -0.24,2.952 -0.711,4.291 -0.477,1.339 -1.138,2.538 -1.98,3.604 -0.848,1.066 -1.832,1.977 -2.948,2.721 -1.115,0.744 -2.318,1.289 -3.608,1.629 -0.302,0.065 -0.744,0.164 -1.319,0.305 -0.574,0.133 -1.065,0.199 -1.471,0.199 H 87.547 V 89.633 H 79.879 V 52.098 H 93.54 c 0.235,0 0.525,0.025 0.864,0.074 0.339,0.051 0.687,0.116 1.042,0.207 0.355,0.082 0.686,0.166 0.987,0.248 0.307,0.092 0.524,0.148 0.662,0.182 0.983,0.373 1.897,0.811 2.744,1.323 0.844,0.505 1.708,1.249 2.588,2.232 0.645,0.678 1.194,1.463 1.653,2.364 0.455,0.893 0.818,1.736 1.092,2.514 0.169,0.57 0.298,1.166 0.38,1.777 0.084,0.612 0.13,1.215 0.13,1.828 z m -7.571,-0.025 c 0,-0.471 -0.078,-0.959 -0.227,-1.464 -0.152,-0.505 -0.393,-0.991 -0.711,-1.446 -0.322,-0.455 -0.724,-0.86 -1.195,-1.207 -0.475,-0.355 -1.032,-0.621 -1.677,-0.786 -0.204,-0.065 -0.431,-0.115 -0.688,-0.148 -0.252,-0.033 -0.396,-0.058 -0.43,-0.058 H 87.544 V 69.98 h 5.639 c 0.066,0 0.235,-0.024 0.509,-0.082 0.268,-0.05 0.471,-0.092 0.608,-0.124 1.289,-0.339 2.243,-1.009 2.872,-2.018 0.626,-1.016 0.939,-1.991 0.939,-2.934 z"
   id="path21" />
		<path
   style="fill:#ffffff"
   inkscape:connector-curvature="0"
   d="m 139.793,89.683 h -8.482 l -2.744,-5.787 h -12.902 l -2.741,5.787 h -8.432 l 17.676,-37.585 17.625,37.585 z"
   id="path23" />
		<path
   style="fill:#ffffff"
   inkscape:connector-curvature="0"
   d="m 171.215,89.683 h -8.351 l -6.47,-14.369 h -4.026 V 89.633 H 144.7 V 52.098 h 13.662 c 0.202,0 0.468,0.025 0.786,0.074 0.322,0.051 0.661,0.116 1.017,0.207 0.355,0.082 0.686,0.166 0.992,0.248 0.306,0.092 0.541,0.166 0.711,0.231 0.785,0.339 1.541,0.728 2.277,1.166 0.731,0.446 1.455,1.05 2.171,1.827 0.818,0.885 1.459,1.803 1.917,2.744 0.464,0.951 0.777,1.886 0.947,2.795 0.17,0.777 0.257,1.562 0.257,2.34 0,1.662 -0.401,3.365 -1.199,5.126 -0.798,1.761 -2.199,3.323 -4.205,4.679 l 7.182,16.148 z m -9.45,-25.978 c 0,-0.678 -0.178,-1.363 -0.533,-2.074 -0.355,-0.703 -1.008,-1.257 -1.956,-1.662 -0.169,-0.066 -0.379,-0.124 -0.632,-0.174 -0.256,-0.049 -0.418,-0.082 -0.483,-0.082 h -5.792 v 7.979 h 5.792 c 0.065,0 0.228,-0.033 0.483,-0.1 0.253,-0.066 0.463,-0.133 0.632,-0.207 0.948,-0.363 1.601,-0.901 1.956,-1.612 0.355,-0.703 0.533,-1.398 0.533,-2.068 z"
   id="path25" />
		<path
   style="fill:#ffffff"
   inkscape:connector-curvature="0"
   d="m 211.089,52.148 -16.965,18.791 16.915,18.693 H 200.73 L 188.993,76.685 v 12.947 h -7.667 V 52.148 h 7.667 v 13.054 l 11.786,-13.054 h 10.31 z"
   id="path27" />
		<path
   style="fill:#ffffff"
   inkscape:connector-curvature="0"
   d="m 262.502,59.771 -6.503,3.249 c -0.301,-0.645 -0.694,-1.19 -1.165,-1.629 -0.477,-0.438 -0.984,-0.802 -1.526,-1.092 -0.541,-0.289 -1.099,-0.487 -1.678,-0.611 -0.574,-0.115 -1.1,-0.174 -1.571,-0.174 -0.509,0 -1.025,0.042 -1.55,0.125 -0.525,0.082 -1.001,0.247 -1.422,0.487 -0.426,0.231 -0.773,0.579 -1.043,1.042 -0.271,0.455 -0.408,1.033 -0.408,1.752 0,0.505 0.17,1.075 0.509,1.695 0.339,0.629 0.896,1.149 1.678,1.555 0.137,0.066 0.269,0.141 0.405,0.223 0.137,0.091 0.273,0.166 0.405,0.232 0.715,0.371 1.426,0.743 2.137,1.115 0.711,0.372 1.423,0.728 2.134,1.066 0.169,0.107 0.38,0.215 0.633,0.331 0.256,0.124 0.466,0.231 0.636,0.331 0.307,0.141 0.642,0.297 1.018,0.479 0.371,0.191 0.689,0.373 0.963,0.537 1.05,0.613 1.913,1.273 2.592,1.984 0.678,0.711 1.198,1.465 1.575,2.258 0.371,0.793 0.632,1.612 0.784,2.439 0.153,0.826 0.229,1.652 0.229,2.463 0,0.984 -0.116,1.918 -0.355,2.82 -0.235,0.893 -0.624,1.735 -1.165,2.513 -0.543,0.776 -1.262,1.505 -2.159,2.183 -0.901,0.678 -2.009,1.273 -3.327,1.777 -0.307,0.107 -0.662,0.207 -1.066,0.307 -0.41,0.099 -0.831,0.182 -1.273,0.23 -0.438,0.05 -0.889,0.092 -1.343,0.125 -0.46,0.033 -0.856,0.049 -1.196,0.049 -0.404,0 -0.734,-0.008 -0.991,-0.024 -0.252,-0.017 -0.504,-0.033 -0.761,-0.05 -0.252,-0.017 -0.468,-0.041 -0.633,-0.074 -0.781,-0.1 -1.62,-0.289 -2.518,-0.562 -0.896,-0.273 -1.785,-0.652 -2.666,-1.141 -0.881,-0.489 -1.72,-1.1 -2.514,-1.828 -0.798,-0.727 -1.483,-1.604 -2.059,-2.62 -0.099,-0.165 -0.211,-0.364 -0.33,-0.579 -0.115,-0.223 -0.228,-0.43 -0.326,-0.637 L 243,78.918 h 0.15 c 0.306,0.645 0.693,1.182 1.169,1.621 0.476,0.445 0.984,0.801 1.525,1.074 0.543,0.265 1.092,0.463 1.65,0.579 0.558,0.124 1.075,0.182 1.55,0.182 0.541,0 1.074,-0.041 1.601,-0.132 0.523,-0.083 0.995,-0.24 1.421,-0.48 0.422,-0.239 0.769,-0.578 1.042,-1.016 0.269,-0.439 0.405,-1.018 0.405,-1.729 0,-1.455 -1.001,-2.688 -2.998,-3.704 -0.099,-0.033 -0.321,-0.149 -0.66,-0.331 -0.34,-0.189 -0.712,-0.389 -1.117,-0.611 -0.405,-0.222 -0.839,-0.446 -1.293,-0.687 -0.459,-0.239 -0.855,-0.438 -1.195,-0.611 -0.137,-0.066 -0.322,-0.157 -0.559,-0.272 -0.238,-0.125 -0.457,-0.216 -0.66,-0.281 -0.306,-0.174 -0.638,-0.348 -0.993,-0.538 -0.355,-0.182 -0.702,-0.364 -1.038,-0.528 -1.049,-0.58 -1.913,-1.232 -2.59,-1.96 -0.679,-0.728 -1.212,-1.488 -1.602,-2.282 -0.393,-0.802 -0.66,-1.611 -0.813,-2.438 -0.153,-0.835 -0.228,-1.653 -0.228,-2.464 0,-0.066 0.017,-0.355 0.05,-0.868 0.033,-0.505 0.083,-0.942 0.153,-1.314 0.032,-0.108 0.066,-0.248 0.104,-0.438 0.032,-0.182 0.082,-0.363 0.148,-0.529 0.07,-0.174 0.161,-0.389 0.281,-0.661 0.12,-0.272 0.244,-0.521 0.38,-0.761 0.307,-0.578 0.694,-1.107 1.171,-1.604 0.471,-0.488 0.979,-0.935 1.521,-1.348 0.541,-0.405 1.096,-0.761 1.653,-1.066 0.558,-0.299 1.091,-0.537 1.6,-0.711 0.776,-0.266 1.592,-0.463 2.438,-0.579 0.844,-0.124 1.659,-0.182 2.439,-0.182 0.373,0.033 0.683,0.058 0.939,0.074 0.251,0.024 0.516,0.041 0.784,0.058 0.273,0.017 0.492,0.025 0.661,0.025 0.777,0.099 1.616,0.289 2.515,0.554 0.896,0.272 1.785,0.661 2.665,1.174 0.882,0.505 1.72,1.124 2.518,1.853 0.795,0.727 1.48,1.578 2.056,2.562 0.069,0.174 0.169,0.372 0.306,0.611 0.133,0.238 0.252,0.437 0.353,0.611 z"
   id="path29" />
		<path
   style="fill:#ffffff"
   inkscape:connector-curvature="0"
   d="m 292.352,89.633 h -6.601 c -0.071,0 -0.224,-0.016 -0.459,-0.049 -0.237,-0.033 -0.439,-0.066 -0.607,-0.1 -0.613,-0.1 -1.204,-0.207 -1.778,-0.307 -0.579,-0.099 -1.203,-0.289 -1.881,-0.562 -2.27,-0.842 -4.2,-1.934 -5.792,-3.273 -1.591,-1.34 -2.894,-2.803 -3.91,-4.39 -1.017,-1.596 -1.753,-3.258 -2.212,-4.978 -0.455,-1.728 -0.682,-3.422 -0.682,-5.084 0,-0.34 0.033,-0.943 0.1,-1.803 0.067,-0.86 0.186,-1.687 0.355,-2.463 0.234,-0.951 0.599,-1.984 1.09,-3.102 0.493,-1.115 1.113,-2.207 1.857,-3.273 0.744,-1.066 1.608,-2.084 2.591,-3.051 0.98,-0.959 2.08,-1.803 3.299,-2.514 1.729,-1.017 3.386,-1.678 4.978,-1.977 0.07,0 0.231,-0.032 0.483,-0.106 0.256,-0.066 0.542,-0.142 0.864,-0.224 0.322,-0.091 0.646,-0.156 0.968,-0.207 0.317,-0.049 0.583,-0.074 0.785,-0.074 h 6.552 v 7.615 h -6.196 c -0.066,0 -0.272,0.049 -0.607,0.132 -0.34,0.083 -0.612,0.14 -0.814,0.173 -0.608,0.075 -1.277,0.281 -2.006,0.637 -0.731,0.355 -1.45,0.803 -2.162,1.348 -0.711,0.538 -1.363,1.15 -1.954,1.828 -0.592,0.678 -1.042,1.372 -1.344,2.083 -0.069,0.174 -0.161,0.364 -0.28,0.587 -0.121,0.215 -0.211,0.43 -0.282,0.629 -0.269,0.785 -0.438,1.438 -0.504,1.959 -0.07,0.529 -0.104,1.107 -0.104,1.752 0,0.918 0.121,1.869 0.356,2.869 0.236,1.001 0.629,1.96 1.17,2.869 0.541,0.918 1.244,1.77 2.108,2.572 0.86,0.793 1.918,1.463 3.175,2 0.132,0.066 0.355,0.157 0.657,0.256 0.306,0.1 0.62,0.199 0.942,0.281 0.317,0.084 0.633,0.157 0.938,0.224 0.307,0.074 0.559,0.107 0.761,0.107 h 6.146 v 7.616 z"
   id="path31" />
	</g>
	<g
   id="g33">
		<path
   style="fill:#febe10"
   inkscape:connector-curvature="0"
   d="m 108.558,98.728 c 0.189,-0.416 0.097,-1.037 -0.205,-1.38 L 97.698,85.255 C 97.396,84.912 97.177,85.004 97.21,85.46 l 2.33,32.149 c 0.033,0.455 0.215,0.488 0.404,0.072 l 8.614,-18.953 z"
   id="path35" />
	</g>
	<g
   id="g37">
		<path
   style="fill:#febe10"
   inkscape:connector-curvature="0"
   d="m 122.347,91.278 c -0.237,-0.45 -0.847,-0.792 -1.354,-0.76 l -12.847,0.817 c -0.508,0.031 -0.576,0.289 -0.152,0.57 l 21.832,14.498 c 0.424,0.281 0.576,0.145 0.339,-0.307 l -7.818,-14.818 z"
   id="path39" />
	</g>
	<g
   id="g41">
		<path
   style="fill:#febe10"
   inkscape:connector-curvature="0"
   d="m 126.521,81.352 c -0.417,-0.188 -1.038,-0.094 -1.38,0.209 l -6.932,6.133 c -0.342,0.303 -0.249,0.523 0.206,0.488 l 19.104,-1.434 c 0.455,-0.035 0.487,-0.217 0.07,-0.404 l -11.068,-4.992 z"
   id="path43" />
	</g>
	<g
   id="g45">
		<path
   style="fill:#febe10"
   inkscape:connector-curvature="0"
   d="m 122.646,74.756 c -0.456,0.016 -0.971,0.375 -1.144,0.799 l -2.279,5.595 c -0.173,0.423 0.009,0.579 0.401,0.347 l 11.215,-6.632 c 0.394,-0.232 0.342,-0.409 -0.114,-0.394 l -8.079,0.285 z"
   id="path47" />
	</g>
</g><g
   id="g3377"><path
     style="fill:#ffffff"
     inkscape:connector-curvature="0"
     id="path53"
     d="m 136.486,105.885 v -9.344 h 1.162 v 9.344 h -1.162 z" /><path
     style="fill:#ffffff"
     inkscape:connector-curvature="0"
     id="path55"
     d="m 139.775,107.607 0.532,-0.756 c 0.561,0.658 1.233,0.91 2.199,0.91 1.121,0 2.186,-0.547 2.186,-1.975 v -1.023 c -0.504,0.688 -1.331,1.205 -2.283,1.205 -1.765,0 -3.012,-1.316 -3.012,-3.502 0,-2.171 1.232,-3.516 3.012,-3.516 0.91,0 1.737,0.448 2.283,1.19 v -1.022 h 1.051 v 6.668 c 0,2.143 -1.583,2.844 -3.236,2.844 -1.134,0.001 -1.92,-0.224 -2.732,-1.023 z m 4.917,-3.669 v -2.969 c -0.378,-0.575 -1.19,-1.079 -2.017,-1.079 -1.373,0 -2.186,1.079 -2.186,2.577 0,1.484 0.812,2.563 2.186,2.563 0.826,0 1.639,-0.505 2.017,-1.092 z" /><path
     style="fill:#ffffff"
     inkscape:connector-curvature="0"
     id="path57"
     d="m 152.419,105.885 v -4.426 c 0,-1.205 -0.616,-1.569 -1.526,-1.569 -0.827,0 -1.597,0.504 -2.003,1.05 v 4.945 h -1.051 v -6.766 h 1.051 v 0.98 c 0.476,-0.574 1.4,-1.148 2.423,-1.148 1.4,0 2.144,0.715 2.144,2.186 v 4.748 h -1.038 z" /><path
     style="fill:#ffffff"
     inkscape:connector-curvature="0"
     id="path59"
     d="m 155.385,97.452 c 0,-0.392 0.322,-0.714 0.715,-0.714 0.392,0 0.7,0.322 0.7,0.714 0,0.392 -0.309,0.7 -0.7,0.7 -0.392,0 -0.715,-0.308 -0.715,-0.7 z m 0.183,8.433 v -6.766 h 1.051 v 6.766 h -1.051 z" /><path
     style="fill:#ffffff"
     inkscape:connector-curvature="0"
     id="path61"
     d="m 158.927,104.471 v -4.428 h -1.121 v -0.924 h 1.121 v -1.85 h 1.064 v 1.85 h 1.373 v 0.924 h -1.373 v 4.203 c 0,0.504 0.225,0.868 0.673,0.868 0.308,0 0.574,-0.14 0.714,-0.294 l 0.309,0.799 c -0.267,0.252 -0.645,0.434 -1.247,0.434 -1.009,0 -1.513,-0.574 -1.513,-1.582 z" /><path
     style="fill:#ffffff"
     inkscape:connector-curvature="0"
     id="path63"
     d="m 162.651,97.452 c 0,-0.392 0.322,-0.714 0.715,-0.714 0.392,0 0.7,0.322 0.7,0.714 0,0.392 -0.309,0.7 -0.7,0.7 -0.393,0 -0.715,-0.308 -0.715,-0.7 z m 0.182,8.433 v -6.766 h 1.051 v 6.766 h -1.051 z" /><path
     style="fill:#ffffff"
     inkscape:connector-curvature="0"
     id="path65"
     d="m 170.563,105.885 v -4.426 c 0,-1.205 -0.616,-1.569 -1.526,-1.569 -0.827,0 -1.597,0.504 -2.003,1.05 v 4.945 h -1.051 v -6.766 h 1.051 v 0.98 c 0.476,-0.574 1.4,-1.148 2.423,-1.148 1.4,0 2.144,0.715 2.144,2.186 v 4.748 h -1.038 z" /><path
     style="fill:#ffffff"
     inkscape:connector-curvature="0"
     id="path67"
     d="m 173.697,107.607 0.532,-0.756 c 0.561,0.658 1.233,0.91 2.199,0.91 1.121,0 2.186,-0.547 2.186,-1.975 v -1.023 c -0.504,0.688 -1.331,1.205 -2.283,1.205 -1.765,0 -3.012,-1.316 -3.012,-3.502 0,-2.171 1.232,-3.516 3.012,-3.516 0.91,0 1.737,0.448 2.283,1.19 v -1.022 h 1.051 v 6.668 c 0,2.143 -1.583,2.844 -3.236,2.844 -1.135,0.001 -1.92,-0.224 -2.732,-1.023 z m 4.917,-3.669 v -2.969 c -0.378,-0.575 -1.19,-1.079 -2.017,-1.079 -1.373,0 -2.186,1.079 -2.186,2.577 0,1.484 0.812,2.563 2.186,2.563 0.826,0 1.639,-0.505 2.017,-1.092 z" /><path
     style="fill:#ffffff"
     inkscape:connector-curvature="0"
     id="path69"
     d="m 185.205,97.452 c 0,-0.392 0.322,-0.714 0.715,-0.714 0.392,0 0.7,0.322 0.7,0.714 0,0.392 -0.309,0.7 -0.7,0.7 -0.393,0 -0.715,-0.308 -0.715,-0.7 z m 0.182,8.433 v -6.766 h 1.051 v 6.766 h -1.051 z" /><path
     style="fill:#ffffff"
     inkscape:connector-curvature="0"
     id="path71"
     d="m 193.117,105.885 v -4.426 c 0,-1.205 -0.616,-1.569 -1.526,-1.569 -0.827,0 -1.597,0.504 -2.003,1.05 v 4.945 h -1.051 v -6.766 h 1.051 v 0.98 c 0.476,-0.574 1.4,-1.148 2.423,-1.148 1.4,0 2.144,0.715 2.144,2.186 v 4.748 h -1.038 z" /><path
     style="fill:#ffffff"
     inkscape:connector-curvature="0"
     id="path73"
     d="m 200.844,105.885 v -4.426 c 0,-1.205 -0.616,-1.569 -1.526,-1.569 -0.827,0 -1.597,0.504 -2.003,1.05 v 4.945 h -1.051 v -6.766 h 1.051 v 0.98 c 0.476,-0.574 1.4,-1.148 2.423,-1.148 1.4,0 2.144,0.715 2.144,2.186 v 4.748 h -1.038 z" /><path
     style="fill:#ffffff"
     inkscape:connector-curvature="0"
     id="path75"
     d="m 203.6,102.495 c 0,-1.962 1.289,-3.544 3.348,-3.544 2.06,0 3.348,1.582 3.348,3.544 0,1.961 -1.288,3.558 -3.348,3.558 -2.059,0 -3.348,-1.597 -3.348,-3.558 z m 5.589,0 c 0,-1.373 -0.798,-2.605 -2.241,-2.605 -1.442,0 -2.241,1.232 -2.241,2.605 0,1.387 0.799,2.619 2.241,2.619 1.443,0 2.241,-1.232 2.241,-2.619 z" /><path
     style="fill:#ffffff"
     inkscape:connector-curvature="0"
     id="path77"
     d="m 213.807,105.885 -2.815,-6.766 h 1.148 l 2.241,5.547 2.256,-5.547 h 1.134 l -2.815,6.766 h -1.149 z" /><path
     style="fill:#ffffff"
     inkscape:connector-curvature="0"
     id="path79"
     d="m 223.09,105.885 v -0.771 c -0.547,0.616 -1.331,0.938 -2.241,0.938 -1.135,0 -2.354,-0.771 -2.354,-2.241 0,-1.526 1.204,-2.228 2.354,-2.228 0.924,0 1.694,0.295 2.241,0.911 v -1.219 c 0,-0.896 -0.729,-1.415 -1.709,-1.415 -0.812,0 -1.471,0.28 -2.073,0.938 l -0.49,-0.728 c 0.729,-0.757 1.597,-1.121 2.703,-1.121 1.442,0 2.619,0.645 2.619,2.283 v 4.65 h -1.05 z m 0,-1.429 v -1.288 c -0.406,-0.547 -1.121,-0.827 -1.85,-0.827 -0.994,0 -1.681,0.616 -1.681,1.471 0,0.868 0.687,1.485 1.681,1.485 0.729,0 1.444,-0.281 1.85,-0.841 z" /><path
     style="fill:#ffffff"
     inkscape:connector-curvature="0"
     id="path81"
     d="m 226.462,104.471 v -4.428 h -1.121 v -0.924 h 1.121 v -1.85 h 1.064 v 1.85 h 1.373 v 0.924 h -1.373 v 4.203 c 0,0.504 0.225,0.868 0.673,0.868 0.308,0 0.574,-0.14 0.714,-0.294 l 0.309,0.799 c -0.267,0.252 -0.645,0.434 -1.247,0.434 -1.009,0 -1.513,-0.574 -1.513,-1.582 z" /><path
     style="fill:#ffffff"
     inkscape:connector-curvature="0"
     id="path83"
     d="m 230.185,97.452 c 0,-0.392 0.322,-0.714 0.715,-0.714 0.392,0 0.7,0.322 0.7,0.714 0,0.392 -0.309,0.7 -0.7,0.7 -0.393,0 -0.715,-0.308 -0.715,-0.7 z m 0.183,8.433 v -6.766 h 1.051 v 6.766 h -1.051 z" /><path
     style="fill:#ffffff"
     inkscape:connector-curvature="0"
     id="path85"
     d="m 233.125,102.495 c 0,-1.962 1.289,-3.544 3.348,-3.544 2.06,0 3.348,1.582 3.348,3.544 0,1.961 -1.288,3.558 -3.348,3.558 -2.058,0 -3.348,-1.597 -3.348,-3.558 z m 5.589,0 c 0,-1.373 -0.798,-2.605 -2.241,-2.605 -1.442,0 -2.241,1.232 -2.241,2.605 0,1.387 0.799,2.619 2.241,2.619 1.444,0 2.241,-1.232 2.241,-2.619 z" /><path
     style="fill:#ffffff"
     inkscape:connector-curvature="0"
     id="path87"
     d="m 246.106,105.885 v -4.426 c 0,-1.205 -0.616,-1.569 -1.526,-1.569 -0.827,0 -1.597,0.504 -2.003,1.05 v 4.945 h -1.051 v -6.766 h 1.051 v 0.98 c 0.476,-0.574 1.4,-1.148 2.423,-1.148 1.4,0 2.144,0.715 2.144,2.186 v 4.748 h -1.038 z" /><path
     style="fill:#ffffff"
     inkscape:connector-curvature="0"
     id="path89"
     d="m 257.11,105.885 v -0.771 c -0.547,0.616 -1.331,0.938 -2.241,0.938 -1.135,0 -2.354,-0.771 -2.354,-2.241 0,-1.526 1.204,-2.228 2.354,-2.228 0.924,0 1.694,0.295 2.241,0.911 v -1.219 c 0,-0.896 -0.729,-1.415 -1.709,-1.415 -0.812,0 -1.471,0.28 -2.073,0.938 l -0.49,-0.728 c 0.729,-0.757 1.597,-1.121 2.703,-1.121 1.442,0 2.619,0.645 2.619,2.283 v 4.65 h -1.05 z m 0,-1.429 v -1.288 c -0.406,-0.547 -1.121,-0.827 -1.85,-0.827 -0.994,0 -1.681,0.616 -1.681,1.471 0,0.868 0.687,1.485 1.681,1.485 0.729,0 1.444,-0.281 1.85,-0.841 z" /><path
     style="fill:#ffffff"
     inkscape:connector-curvature="0"
     id="path91"
     d="m 259.878,102.495 c 0,-2.003 1.358,-3.544 3.376,-3.544 1.232,0 1.961,0.504 2.479,1.176 l -0.7,0.631 c -0.448,-0.616 -1.022,-0.868 -1.724,-0.868 -1.429,0 -2.339,1.106 -2.339,2.605 0,1.499 0.91,2.619 2.339,2.619 0.701,0 1.275,-0.28 1.724,-0.882 l 0.7,0.644 c -0.519,0.673 -1.247,1.177 -2.479,1.177 -2.017,0 -3.376,-1.555 -3.376,-3.558 z" /><path
     style="fill:#ffffff"
     inkscape:connector-curvature="0"
     id="path93"
     d="m 267.215,105.885 v -6.766 h 1.051 v 1.078 c 0.546,-0.7 1.33,-1.232 2.255,-1.232 v 1.078 c -0.126,-0.014 -0.252,-0.027 -0.406,-0.027 -0.658,0 -1.541,0.532 -1.849,1.078 v 4.791 h -1.051 z" /><path
     style="fill:#ffffff"
     inkscape:connector-curvature="0"
     id="path95"
     d="m 271.442,102.495 c 0,-1.962 1.289,-3.544 3.348,-3.544 2.06,0 3.348,1.582 3.348,3.544 0,1.961 -1.288,3.558 -3.348,3.558 -2.059,0 -3.348,-1.597 -3.348,-3.558 z m 5.589,0 c 0,-1.373 -0.798,-2.605 -2.241,-2.605 -1.442,0 -2.241,1.232 -2.241,2.605 0,1.387 0.799,2.619 2.241,2.619 1.443,0 2.241,-1.232 2.241,-2.619 z" /><path
     style="fill:#ffffff"
     inkscape:connector-curvature="0"
     id="path97"
     d="m 279.269,104.988 0.532,-0.756 c 0.448,0.518 1.303,0.966 2.227,0.966 1.037,0 1.611,-0.49 1.611,-1.163 0,-1.639 -4.188,-0.63 -4.188,-3.137 0,-1.064 0.896,-1.947 2.508,-1.947 1.162,0 1.975,0.434 2.507,0.98 l -0.49,0.729 c -0.406,-0.49 -1.135,-0.854 -2.017,-0.854 -0.925,0 -1.499,0.462 -1.499,1.064 0,1.471 4.188,0.505 4.188,3.138 0,1.135 -0.911,2.045 -2.647,2.045 -1.122,0 -2.045,-0.35 -2.732,-1.065 z" /><path
     style="fill:#ffffff"
     inkscape:connector-curvature="0"
     id="path99"
     d="m 285.779,104.988 0.532,-0.756 c 0.448,0.518 1.303,0.966 2.227,0.966 1.037,0 1.611,-0.49 1.611,-1.163 0,-1.639 -4.188,-0.63 -4.188,-3.137 0,-1.064 0.896,-1.947 2.508,-1.947 1.162,0 1.975,0.434 2.507,0.98 l -0.49,0.729 c -0.406,-0.49 -1.135,-0.854 -2.017,-0.854 -0.925,0 -1.499,0.462 -1.499,1.064 0,1.471 4.188,0.505 4.188,3.138 0,1.135 -0.911,2.045 -2.647,2.045 -1.122,0 -2.046,-0.35 -2.732,-1.065 z" /><path
     style="fill:#ffffff"
     inkscape:connector-curvature="0"
     id="path101"
     d="m 296.531,102.257 v -5.716 h 1.177 v 5.688 c 0,1.709 0.91,2.787 2.633,2.787 1.724,0 2.647,-1.078 2.647,-2.787 v -5.688 h 1.177 v 5.701 c 0,2.326 -1.288,3.811 -3.824,3.811 -2.522,0 -3.81,-1.498 -3.81,-3.796 z" /><path
     style="fill:#ffffff"
     inkscape:connector-curvature="0"
     id="path103"
     d="m 305.784,104.568 0.7,-0.896 c 0.603,0.7 1.611,1.344 2.928,1.344 1.667,0 2.199,-0.896 2.199,-1.624 0,-2.409 -5.533,-1.065 -5.533,-4.398 0,-1.541 1.373,-2.605 3.222,-2.605 1.415,0 2.521,0.49 3.306,1.316 l -0.7,0.854 c -0.7,-0.784 -1.681,-1.121 -2.703,-1.121 -1.106,0 -1.919,0.604 -1.919,1.485 0,2.101 5.533,0.896 5.533,4.385 0,1.345 -0.925,2.745 -3.446,2.745 -1.612,0 -2.817,-0.616 -3.587,-1.485 z" /><path
     style="fill:#ffffff"
     inkscape:connector-curvature="0"
     id="path105"
     d="m 314.17,101.221 c 0,-2.872 2.114,-4.833 4.804,-4.833 1.653,0 2.802,0.784 3.544,1.849 l -0.966,0.547 c -0.532,-0.799 -1.513,-1.359 -2.578,-1.359 -2.045,0 -3.6,1.555 -3.6,3.797 0,2.213 1.555,3.795 3.6,3.795 1.065,0 2.046,-0.574 2.578,-1.357 l 0.98,0.531 c -0.784,1.079 -1.905,1.863 -3.559,1.863 -2.688,-0.001 -4.803,-1.962 -4.803,-4.833 z" /></g>
</svg>