<?xml version="1.0" encoding="utf-8"?>
<!-- Generator: Adobe Illustrator 18.0.0, SVG Export Plug-In . SVG Version: 6.00 Build 0)  -->
<!DOCTYPE svg PUBLIC "-//W3C//DTD SVG 1.1//EN" "http://www.w3.org/Graphics/SVG/1.1/DTD/svg11.dtd">
<svg version="1.1" id="Layer_1" xmlns="http://www.w3.org/2000/svg" xmlns:xlink="http://www.w3.org/1999/xlink" x="0px" y="0px"
	 viewBox="0 0 1081.9 135.7" enable-background="new 0 0 1081.9 135.7" xml:space="preserve">
<path fill="#FDBE12" d="M1081.9,135.7c-115,0-230.1,0-345.1,0c-1.9,0-2-0.1-2-2c0-9.2,0-18.4,0-27.6c0-0.5,0-0.9,0-1.5
	c-0.5,0-0.9-0.1-1.4-0.1c-4.4,0-8.7,0-13.1,0c-1.7,0-1.8-0.1-1.8-1.9c0-6.1,0-12.2,0-18.2c0-0.4,0-0.9,0-1.5c-0.5,0-1,0-1.4,0
	c-10.8,0-21.5,0-32.3,0c-1.8,0-1.8-0.1-1.8-1.8c0-14.2,0-28.5,0-42.7c0-0.5,0-0.9,0-1.6c-2.3,0-4.5,0-6.7,0c-1.8,0-1.9-0.1-1.9-1.9
	c0-3.3,0-6.6,0-10c0-0.4,0-0.9,0-1.4c-12.8,0-25.5,0-38.4,0c0,0.4-0.1,0.8-0.1,1.2c0,4.4,0,8.7,0,13.1c0,1.5-0.3,1.7-1.7,1.7
	c-3.6,0-7.2,0-10.8,0c-0.4,0-0.9,0-1.4,0c0,0.6,0,1.1,0,1.6c0,24.7,0,49.4,0,74.2c0,0.4,0,0.8,0,1.2c-0.1,0.7-0.4,1.1-1.2,1.1
	c-2,0-4,0-6,0c-0.7,0-1.1-0.4-1.1-1.1c0-0.3,0-0.6,0-1c0-23.2,0-46.5,0-69.7c0-0.4,0-0.9,0-1.4c-5.4,0-10.8,0-16.3,0
	c0,0.5,0,0.9,0,1.4c0,16.2,0,32.3,0,48.5c0,1.8,0,1.9-1.9,1.9c-1.5,0-3,0-4.6,0c0,1.5,0,2.9,0,4.4c0,1.1-0.4,1.6-1.5,1.6
	c-1,0-2.1,0-3.3,0c0,0.5,0,1,0,1.4c0,4.7,0,9.4,0,14.2c0,1.7-0.1,1.7-1.8,1.7c-0.8,0-1.6,0-2.4,0c-1.9,0-2-0.1-2-1.9
	c0-4.1,0-8.2,0-12.4c0-8.8,0-17.5,0-26.3c0-0.5,0-1,0-1.7c-0.9,0-1.7,0-2.5,0c-1,0-1.9,0-2.9,0c-1.6,0-1.9-0.2-1.9-1.8
	c0-4,0-7.9,0-11.9c0-0.4,0-0.8,0-1.3c-3.8-0.1-7.4-0.2-11.1-0.3c-1.4,0-2.9-0.1-4.3,0c-1,0-1.5-0.4-1.5-1.5c0.1-3.7,0-7.4,0-11
	c0-0.4,0-0.9,0-1.3c-2.3-0.4-2.3-0.4-2.3-2.7c0-5.4,0-10.9,0-16.3c0-0.4,0-0.9,0-1.3c-1.9-0.6-1.9-0.6-1.9-2.6c0-3.1,0-6.2,0-9.4
	c0-0.4,0-0.9,0-1.3c-2.2-0.3-2.2-0.3-2.2-2.4c0-3,0-6.1,0-9.1c0-0.4,0-0.8,0-1.2c-2.9,0-5.7,0-8.6,0c0,1,0,2.1,0,3.1
	c0,2.5,0,5,0,7.4c0,1.9,0,1.9-1.9,2.2c0,2.7,0,5.5,0,8.2c0,0.8,0,1.7,0,2.5c0,2.1,0,2.1-2.2,2.3c0,0.4,0,0.8,0,1.2
	c0,5.7,0,11.4,0,17.2c0,1.2-0.3,2-1.7,2c0,0.5,0,1,0,1.5c0,12.5,0,25,0,37.6c0,1.7-0.2,1.9-1.9,1.9c-1.6,0-3.1,0-4.7,0
	c-1.6,0-1.8-0.2-1.8-1.8c0-7.8,0-15.7,0-23.5c0-0.4,0-0.9,0-1.4c-8.3,0-16.6,0-25,0c0,0.4,0,0.9,0,1.4c0,8.2,0,16.3,0,24.5
	c0,1.6-0.1,1.7-1.7,1.7c-5.3,0-10.6,0-16,0c-0.4,0-0.9,0-1.5,0c0,1.7,0,3.3,0,4.8c0,1.4-0.1,1.5-1.6,1.6c-0.8,0-1.6,0-2.4,0
	c-0.1,0-0.1,0-0.4,0.1c0,1.7,0,3.4,0,5.2c0,1.5-0.2,1.7-1.6,1.7c-0.7,0-1.4,0-2,0c-1.4,0-1.6-0.2-1.6-1.6c0-0.2,0-0.5,0-0.7
	c0-14.2,0-28.4,0-42.6c0-0.5,0-0.9,0-1.5c-7.8,0-15.5,0-23.3,0c0,0.5-0.1,0.9-0.1,1.4c0,10.8,0,21.5,0,32.3c0,1.8-1.6,2.7-3.1,1.8
	c-0.3-0.2-0.5-0.9-0.6-1.3c-0.1-1.5,0-2.9,0-4.2c-0.8-0.5-1.5-0.9-2.2-1.4c0.1-0.1,0.1-0.2,0.2-0.3c-2,0-4,0-6.1,0
	c-0.1,1.1-0.9,1.3-2,1.3c0,1.4,0,2.6,0,3.9c0,2.1,0,2.1-2.2,2.1c-0.8,0-1.6,0-2.4,0c-1.1,0.1-1.5-0.4-1.5-1.5c0-5,0-9.9,0-14.9
	c0-0.4,0-0.9,0-1.4c-4.7,0-9.3,0-14,0c0,0.5,0,0.9,0,1.4c0,4.8,0,9.7,0,14.5c0,1.7-0.2,1.9-1.9,1.9c-9.4,0-18.7,0-28.1,0
	c-0.4,0-0.9,0-1.4,0c0,0.5,0,1,0,1.4c0,8.5,0,17,0,25.6c0,1.7-0.2,1.8-1.9,1.8c-9.8,0-19.5,0-29.3,0c-0.5,0-0.9,0-1.5,0
	c0,0.5-0.1,0.9-0.1,1.4c0,3.8,0,7.5,0,11.3c0,1.5-0.2,1.8-1.7,1.8c-0.1,0-0.2,0-0.2,0c-116.5,0-233,0-349.5,0c0-0.6,0-1.1,0-1.7
	c0.6,0,1.1,0,1.7,0c115.4,0,230.8,0,346.2,0c0.6,0,1.1,0,1.8,0c0-0.5,0.1-0.9,0.1-1.3c0-3.8,0-7.5,0-11.3c0-1.7,0.1-1.8,1.8-1.8
	c9.8,0,19.6,0,29.4,0c0.5,0,1,0,1.7,0c0-0.5,0-1,0-1.4c0-8.6,0-17.1,0-25.7c0-1.6,0.1-1.7,1.7-1.7c9.4,0,18.7,0,28.1,0
	c0.4,0,0.9,0,1.4,0c0-0.5,0.1-0.9,0.1-1.3c0-4.9,0-9.8,0-14.8c0-1.5,0.2-1.8,1.7-1.8c4.7,0,9.4,0,14,0c1.5,0,1.7,0.2,1.7,1.7
	c0,5.3,0,10.6,0,16c0.8,0,1.6,0,2.6,0c0-1.5,0-3,0-4.5c0-1,0.2-1.6,1.4-1.6c0.2,0,0.5-0.1,0.5-0.2c0.2-1.3,1.1-1,2-1
	c2.2,0,4.3-0.1,6.5,0c0.5,0,0.9,0.5,1.4,0.8c0.7,0.3,1.3,0.6,2.1,1c0-5.5,0-11,0-16.5c0-4,0-7.9,0-11.9c0-1.5,0.2-1.7,1.7-1.7
	c7.8,0,15.6,0,23.4,0c1.6,0,1.7,0.2,1.7,1.8c0,14.4,0,28.7,0,43.1c0,0.5,0,1,0,1.5c0.6,0,1.1,0,1.7,0c0-1.7,0-3.3,0-5
	c0-1.7,0.2-2,2-2c0.8,0,1.5,0,2.4,0c0-1.6,0-3.1,0-4.6c0-1.5,0.3-1.8,1.7-1.8c5.3,0,10.6,0,15.8,0c0.4,0,0.9,0,1.5,0
	c0-0.5,0-1,0-1.5c0-8,0-16.1,0-24.1c0-1.9,0.1-2.1,2-2.1c8.2,0,16.4,0,24.6,0c1.8,0,1.9,0.1,1.9,1.9c0,7.8,0,15.5,0,23.3
	c0,0.4,0,0.9,0,1.4c1.6,0,3.2,0,5,0c0-0.4,0-0.9,0-1.4c0-12.6,0-25.2,0-37.8c0-1,0.1-1.9,1.6-1.8c0-0.5,0-0.9,0-1.4
	c0-5.5,0-11,0-16.6c0-2.3,0-2.3,2.3-2.6c0-2.1,0-4.1,0-6.2c0-1.6,0-3.2,0-4.8c0-1.9,0-1.9,1.9-2.2c0-0.5,0-1.1,0-1.6
	c0-3.1,0-6.2,0-9.4c0-1.1,0.4-1.6,1.6-1.6c3,0,6.1,0,9.1,0c1.1,0,1.5,0.4,1.5,1.5c0,3.2,0,6.5,0,9.7c0,0.4,0,0.9,0,1.3
	c2.2,0.4,2.2,0.4,2.2,2.4c0,3.6,0,7.1,0,10.6c1.9,0.5,1.9,0.5,1.9,2.5c0,5.6,0,11.1,0,16.7c0,0.4,0,0.9,0,1.4c0.3,0,0.6,0.1,0.8,0.1
	c1.1-0.1,1.5,0.5,1.5,1.5c0,3.7,0,7.4,0,11c0,0.4,0,0.9,0,1.6c2.9,0,5.7,0,8.5,0c2.4,0,4.7,0.1,7.1,0.1c1,0,1.3,0.4,1.3,1.4
	c0,4,0,8.1,0,12.1c0,0.4,0,0.9,0,1.5c1.8,0,3.6,0,5.3,0c2,0,2.1,0.1,2.1,2.1c0,12.8,0,25.7,0,38.5c0,0.5,0,1,0,1.5
	c0.9,0,1.7,0,2.7,0c0-0.4,0-0.8,0-1.3c0-4.8,0-9.5,0-14.3c0-1.4,0.2-1.6,1.7-1.7c0.9,0,1.8,0,2.8,0c0.1,0,0.1,0,0.4-0.1
	c0-1.4,0-2.8,0-4.2c0-1.2,0.5-1.6,1.6-1.6c1.6,0,3.2,0,4.9,0c0-0.6,0-1,0-1.5c0-16.1,0-32.2,0-48.2c0-2,0-2,2-2c5.3,0,10.6,0,16,0
	c1.7,0,1.7,0.1,1.7,1.8c0,23.3,0,46.6,0,69.8c0,0.5,0,1,0,1.5c1.6,0,3.1,0,4.8,0c0-0.5,0-1,0-1.5c0-24.8,0-49.6,0-74.4
	c0-2,0.1-2.1,2.2-2.1c3.4,0,6.9,0,10.3,0c0.4,0,0.9,0,1.4,0c0-0.5,0.1-0.9,0.1-1.4c0-4.3,0-8.6,0-13c0-1.6,0.2-1.8,1.8-1.8
	c12.8,0,25.6,0,38.4,0c1.7,0,1.8,0.1,1.8,1.8c0,3.8,0,7.6,0,11.6c1.1,0,2.2,0,3.3,0c1.4,0,2.7,0,4.1,0c0.9,0,1.3,0.4,1.3,1.3
	c0,0.3,0,0.6,0,1c0,14.1,0,28.2,0,42.2c0,0.5,0,1,0,1.6c0.5,0,1,0,1.4,0c10.8,0,21.5,0,32.3,0c1.7,0,1.9,0.2,1.9,1.9
	c0,6.1,0,12.2,0,18.2c0,0.4,0,0.9,0,1.4c0.5,0,0.9,0,1.4,0c4.4,0,8.8,0,13.2,0c1.4,0,1.6,0.2,1.6,1.6c0,9.4,0,18.7,0,28.1
	c0,0.4,0,0.9,0,1.5c0.6,0,1.2,0,1.7,0c114,0,228,0,342,0c0.6,0,1.1,0,1.7,0C1081.9,134.5,1081.9,135.1,1081.9,135.7z"/>
</svg>
