<?xml version="1.0" encoding="utf-8"?>
<!-- Generator: Adobe Illustrator 16.0.0, SVG Export Plug-In . SVG Version: 6.00 Build 0)  -->
<!DOCTYPE svg PUBLIC "-//W3C//DTD SVG 1.1//EN" "http://www.w3.org/Graphics/SVG/1.1/DTD/svg11.dtd">
<svg version="1.1" id="Layer_1" xmlns="http://www.w3.org/2000/svg" xmlns:xlink="http://www.w3.org/1999/xlink" x="0px" y="0px"
	 width="349.712px" height="146.892px" viewBox="0 0 349.712 146.892" enable-background="new 0 0 349.712 146.892"
	 xml:space="preserve">
<g>
	<g>
		<path fill="#FEBE10" d="M64.106,89.811c0.42,0.357,1.171,0.455,1.669,0.219l23.076-10.99c0.497-0.237,0.463-0.523-0.077-0.635
			L39.292,68.098c-0.54-0.112-0.638,0.088-0.218,0.445L64.106,89.811z"/>
	</g>
	<g>
		<path fill="#FEBE10" d="M64.054,64.84c0.044,0.593,0.537,1.243,1.096,1.445l25.9,9.396c0.559,0.202,0.752-0.041,0.43-0.54
			L61.951,29.36c-0.322-0.499-0.55-0.423-0.506,0.169L64.054,64.84z"/>
	</g>
	<g>
		<path fill="#FEBE10" d="M90.029,102.287c0.506-0.104,1.015-0.6,1.129-1.104l4.859-21.443c0.114-0.504-0.116-0.645-0.512-0.312
			l-33.421,28.038c-0.396,0.332-0.306,0.521,0.201,0.418L90.029,102.287z"/>
	</g>
	<g>
		<path fill="#FFFFFF" d="M71.542,59.771l-6.504,3.249c-0.301-0.645-0.693-1.19-1.165-1.629c-0.476-0.438-0.984-0.802-1.525-1.092
			c-0.541-0.289-1.1-0.487-1.679-0.611c-0.574-0.115-1.1-0.174-1.57-0.174c-0.509,0-1.025,0.042-1.55,0.125
			c-0.526,0.082-1.001,0.247-1.423,0.487c-0.426,0.231-0.772,0.579-1.041,1.042c-0.273,0.455-0.409,1.033-0.409,1.752
			c0,0.505,0.169,1.075,0.509,1.695c0.338,0.629,0.896,1.149,1.678,1.555c0.136,0.066,0.268,0.141,0.404,0.223
			c0.138,0.091,0.273,0.166,0.406,0.232c0.715,0.371,1.426,0.743,2.137,1.115s1.422,0.728,2.133,1.066
			c0.17,0.107,0.38,0.215,0.633,0.331c0.256,0.124,0.467,0.231,0.637,0.331c0.306,0.141,0.641,0.297,1.017,0.479
			c0.372,0.191,0.69,0.373,0.963,0.537c1.05,0.613,1.914,1.273,2.593,1.984c0.677,0.711,1.198,1.465,1.575,2.258
			c0.37,0.793,0.632,1.612,0.784,2.439c0.152,0.826,0.228,1.652,0.228,2.463c0,0.984-0.115,1.918-0.355,2.82
			c-0.235,0.893-0.624,1.735-1.165,2.513c-0.542,0.776-1.262,1.505-2.159,2.183c-0.9,0.678-2.009,1.273-3.327,1.777
			c-0.306,0.107-0.661,0.207-1.066,0.307c-0.409,0.099-0.831,0.182-1.273,0.23c-0.438,0.05-0.889,0.092-1.343,0.125
			c-0.459,0.033-0.855,0.049-1.195,0.049c-0.405,0-0.735-0.008-0.992-0.024c-0.252-0.017-0.504-0.033-0.761-0.05
			c-0.252-0.017-0.467-0.041-0.633-0.074c-0.78-0.1-1.619-0.289-2.518-0.562c-0.896-0.273-1.785-0.652-2.665-1.141
			c-0.882-0.488-1.72-1.1-2.515-1.828c-0.798-0.727-1.483-1.604-2.059-2.62c-0.098-0.165-0.211-0.364-0.329-0.579
			c-0.116-0.223-0.229-0.43-0.327-0.637l6.35-3.199h0.148c0.307,0.645,0.694,1.182,1.171,1.621c0.475,0.445,0.983,0.801,1.523,1.074
			c0.543,0.265,1.093,0.463,1.65,0.579c0.558,0.124,1.075,0.182,1.55,0.182c0.542,0,1.075-0.041,1.601-0.132
			c0.524-0.083,0.996-0.24,1.422-0.48c0.421-0.239,0.77-0.578,1.041-1.016c0.269-0.439,0.405-1.018,0.405-1.729
			c0-1.455-1-2.688-2.996-3.704c-0.1-0.033-0.323-0.149-0.662-0.331c-0.34-0.189-0.711-0.389-1.116-0.611s-0.839-0.446-1.294-0.687
			c-0.459-0.239-0.855-0.438-1.194-0.611c-0.137-0.066-0.322-0.157-0.558-0.272c-0.24-0.125-0.459-0.216-0.661-0.281
			c-0.307-0.174-0.638-0.348-0.993-0.538c-0.355-0.182-0.703-0.364-1.037-0.528c-1.051-0.58-1.915-1.232-2.592-1.96
			c-0.679-0.728-1.211-1.488-1.601-2.282c-0.393-0.802-0.661-1.611-0.814-2.438c-0.151-0.835-0.227-1.653-0.227-2.464
			c0-0.066,0.017-0.355,0.049-0.868c0.033-0.505,0.084-0.942,0.153-1.314c0.033-0.108,0.066-0.248,0.104-0.438
			c0.033-0.182,0.082-0.363,0.148-0.529c0.07-0.174,0.161-0.389,0.281-0.661s0.244-0.521,0.381-0.761
			c0.306-0.578,0.693-1.107,1.17-1.604c0.471-0.488,0.979-0.935,1.521-1.348c0.542-0.405,1.096-0.761,1.653-1.066
			c0.559-0.299,1.093-0.537,1.601-0.711c0.777-0.266,1.591-0.463,2.438-0.579c0.844-0.124,1.658-0.182,2.439-0.182
			c0.372,0.033,0.682,0.058,0.938,0.074c0.252,0.024,0.517,0.041,0.785,0.058c0.272,0.017,0.492,0.025,0.661,0.025
			c0.777,0.099,1.616,0.289,2.514,0.554c0.896,0.272,1.785,0.661,2.666,1.174c0.881,0.505,1.72,1.124,2.518,1.853
			c0.794,0.727,1.479,1.578,2.055,2.562c0.069,0.174,0.169,0.372,0.307,0.611C71.323,59.398,71.443,59.597,71.542,59.771z"/>
		<path fill="#FFFFFF" d="M107.506,64.847c0,1.521-0.24,2.952-0.711,4.291c-0.477,1.339-1.138,2.538-1.98,3.604
			c-0.848,1.066-1.832,1.977-2.948,2.721c-1.115,0.744-2.318,1.289-3.608,1.629c-0.302,0.065-0.744,0.164-1.319,0.305
			c-0.574,0.133-1.065,0.199-1.471,0.199h-6.098v12.037h-7.668V52.098h13.662c0.235,0,0.525,0.025,0.864,0.074
			c0.339,0.051,0.687,0.116,1.042,0.207c0.355,0.082,0.686,0.166,0.987,0.248c0.307,0.092,0.524,0.148,0.662,0.182
			c0.983,0.373,1.897,0.811,2.744,1.323c0.844,0.505,1.708,1.249,2.588,2.232c0.645,0.678,1.194,1.463,1.653,2.364
			c0.455,0.893,0.818,1.736,1.092,2.514c0.169,0.57,0.298,1.166,0.38,1.777C107.46,63.631,107.506,64.234,107.506,64.847z
			 M99.936,64.822c0-0.471-0.078-0.959-0.227-1.464c-0.152-0.505-0.393-0.991-0.711-1.446c-0.322-0.455-0.724-0.86-1.195-1.207
			c-0.475-0.355-1.032-0.621-1.677-0.786c-0.204-0.065-0.431-0.115-0.688-0.148c-0.252-0.033-0.396-0.058-0.43-0.058h-5.639V69.98
			h5.639c0.066,0,0.235-0.024,0.509-0.082c0.268-0.05,0.471-0.092,0.608-0.124c1.289-0.339,2.243-1.009,2.872-2.018
			C99.623,66.74,99.936,65.765,99.936,64.822z"/>
		<path fill="#FFFFFF" d="M141.618,89.683h-8.482l-2.744-5.787h-12.902l-2.741,5.787h-8.432l17.676-37.585L141.618,89.683z"/>
		<path fill="#FFFFFF" d="M173.04,89.683h-8.351l-6.47-14.369h-4.026v14.319h-7.668V52.098h13.662c0.202,0,0.468,0.025,0.786,0.074
			c0.322,0.051,0.661,0.116,1.017,0.207c0.355,0.082,0.686,0.166,0.992,0.248c0.306,0.092,0.541,0.166,0.711,0.231
			c0.785,0.339,1.541,0.728,2.277,1.166c0.731,0.446,1.455,1.05,2.171,1.827c0.818,0.885,1.459,1.803,1.917,2.744
			c0.464,0.951,0.777,1.886,0.947,2.795c0.17,0.777,0.257,1.562,0.257,2.34c0,1.662-0.401,3.365-1.199,5.126
			s-2.199,3.323-4.205,4.679L173.04,89.683z M163.589,63.705c0-0.678-0.178-1.363-0.533-2.074c-0.355-0.703-1.008-1.257-1.956-1.662
			c-0.169-0.066-0.379-0.124-0.632-0.174c-0.256-0.049-0.418-0.082-0.483-0.082h-5.792v7.979h5.792c0.065,0,0.228-0.033,0.483-0.1
			c0.253-0.066,0.463-0.133,0.632-0.207c0.948-0.363,1.601-0.901,1.956-1.612C163.412,65.07,163.589,64.375,163.589,63.705z"/>
		<path fill="#FFFFFF" d="M212.914,52.148l-16.965,18.791l16.915,18.693h-10.309l-11.737-12.947v12.947h-7.667V52.148h7.667v13.054
			l11.786-13.054H212.914z"/>
		<path fill="#FFFFFF" d="M264.327,59.771l-6.503,3.249c-0.301-0.645-0.694-1.19-1.165-1.629c-0.477-0.438-0.984-0.802-1.526-1.092
			c-0.541-0.289-1.099-0.487-1.678-0.611c-0.574-0.115-1.1-0.174-1.571-0.174c-0.509,0-1.025,0.042-1.55,0.125
			c-0.525,0.082-1.001,0.247-1.422,0.487c-0.426,0.231-0.773,0.579-1.043,1.042c-0.271,0.455-0.408,1.033-0.408,1.752
			c0,0.505,0.17,1.075,0.509,1.695c0.339,0.629,0.896,1.149,1.678,1.555c0.137,0.066,0.269,0.141,0.405,0.223
			c0.137,0.091,0.273,0.166,0.405,0.232c0.715,0.371,1.426,0.743,2.137,1.115s1.423,0.728,2.134,1.066
			c0.169,0.107,0.38,0.215,0.633,0.331c0.256,0.124,0.466,0.231,0.636,0.331c0.307,0.141,0.642,0.297,1.018,0.479
			c0.371,0.191,0.689,0.373,0.963,0.537c1.05,0.613,1.913,1.273,2.592,1.984c0.678,0.711,1.198,1.465,1.575,2.258
			c0.371,0.793,0.632,1.612,0.784,2.439c0.153,0.826,0.229,1.652,0.229,2.463c0,0.984-0.116,1.918-0.355,2.82
			c-0.235,0.893-0.624,1.735-1.165,2.513c-0.543,0.776-1.262,1.505-2.159,2.183c-0.901,0.678-2.009,1.273-3.327,1.777
			c-0.307,0.107-0.662,0.207-1.066,0.307c-0.41,0.099-0.831,0.182-1.273,0.23c-0.438,0.05-0.889,0.092-1.343,0.125
			c-0.46,0.033-0.856,0.049-1.196,0.049c-0.404,0-0.734-0.008-0.991-0.024c-0.252-0.017-0.504-0.033-0.761-0.05
			c-0.252-0.017-0.468-0.041-0.633-0.074c-0.781-0.1-1.62-0.289-2.518-0.562c-0.896-0.273-1.785-0.652-2.666-1.141
			s-1.72-1.1-2.514-1.828c-0.798-0.727-1.483-1.604-2.059-2.62c-0.099-0.165-0.211-0.364-0.33-0.579
			c-0.115-0.223-0.228-0.43-0.326-0.637l6.348-3.199h0.15c0.306,0.645,0.693,1.182,1.169,1.621c0.476,0.445,0.984,0.801,1.525,1.074
			c0.543,0.265,1.092,0.463,1.65,0.579c0.558,0.124,1.075,0.182,1.55,0.182c0.541,0,1.074-0.041,1.601-0.132
			c0.523-0.083,0.995-0.24,1.421-0.48c0.422-0.239,0.769-0.578,1.042-1.016c0.269-0.439,0.405-1.018,0.405-1.729
			c0-1.455-1.001-2.688-2.998-3.704c-0.099-0.033-0.321-0.149-0.66-0.331c-0.34-0.189-0.712-0.389-1.117-0.611
			s-0.839-0.446-1.293-0.687c-0.459-0.239-0.855-0.438-1.195-0.611c-0.137-0.066-0.322-0.157-0.559-0.272
			c-0.238-0.125-0.457-0.216-0.66-0.281c-0.306-0.174-0.638-0.348-0.993-0.538c-0.355-0.182-0.702-0.364-1.038-0.528
			c-1.049-0.58-1.913-1.232-2.59-1.96c-0.679-0.728-1.212-1.488-1.602-2.282c-0.393-0.802-0.66-1.611-0.813-2.438
			c-0.153-0.835-0.228-1.653-0.228-2.464c0-0.066,0.017-0.355,0.05-0.868c0.033-0.505,0.083-0.942,0.153-1.314
			c0.032-0.108,0.066-0.248,0.104-0.438c0.032-0.182,0.082-0.363,0.148-0.529c0.07-0.174,0.161-0.389,0.281-0.661
			s0.244-0.521,0.38-0.761c0.307-0.578,0.694-1.107,1.171-1.604c0.471-0.488,0.979-0.935,1.521-1.348
			c0.541-0.405,1.096-0.761,1.653-1.066c0.558-0.299,1.091-0.537,1.6-0.711c0.776-0.266,1.592-0.463,2.438-0.579
			c0.844-0.124,1.659-0.182,2.439-0.182c0.373,0.033,0.683,0.058,0.939,0.074c0.251,0.024,0.516,0.041,0.784,0.058
			c0.273,0.017,0.492,0.025,0.661,0.025c0.777,0.099,1.616,0.289,2.515,0.554c0.896,0.272,1.785,0.661,2.665,1.174
			c0.882,0.505,1.72,1.124,2.518,1.853c0.795,0.727,1.48,1.578,2.056,2.562c0.069,0.174,0.169,0.372,0.306,0.611
			C264.107,59.398,264.226,59.597,264.327,59.771z"/>
		<path fill="#FFFFFF" d="M294.176,89.633h-6.601c-0.071,0-0.224-0.016-0.459-0.049c-0.237-0.033-0.439-0.066-0.607-0.1
			c-0.613-0.1-1.204-0.207-1.778-0.307c-0.579-0.099-1.203-0.289-1.881-0.562c-2.27-0.842-4.2-1.934-5.792-3.273
			c-1.591-1.34-2.894-2.803-3.91-4.39c-1.017-1.596-1.753-3.258-2.212-4.978c-0.455-1.728-0.682-3.422-0.682-5.084
			c0-0.34,0.033-0.943,0.1-1.803s0.186-1.687,0.355-2.463c0.234-0.951,0.599-1.984,1.09-3.102c0.493-1.115,1.113-2.207,1.857-3.273
			s1.608-2.084,2.591-3.051c0.98-0.959,2.08-1.803,3.299-2.514c1.729-1.017,3.386-1.678,4.978-1.977c0.07,0,0.231-0.032,0.483-0.106
			c0.256-0.066,0.542-0.142,0.864-0.224c0.322-0.091,0.646-0.156,0.968-0.207c0.317-0.049,0.583-0.074,0.785-0.074h6.552v7.615
			h-6.196c-0.066,0-0.272,0.049-0.607,0.132c-0.34,0.083-0.612,0.14-0.814,0.173c-0.608,0.075-1.277,0.281-2.006,0.637
			c-0.731,0.355-1.45,0.803-2.162,1.348c-0.711,0.538-1.363,1.15-1.954,1.828c-0.592,0.678-1.042,1.372-1.344,2.083
			c-0.069,0.174-0.161,0.364-0.28,0.587c-0.121,0.215-0.211,0.43-0.282,0.629c-0.269,0.785-0.438,1.438-0.504,1.959
			c-0.07,0.529-0.104,1.107-0.104,1.752c0,0.918,0.121,1.869,0.356,2.869c0.236,1.001,0.629,1.96,1.17,2.869
			c0.541,0.918,1.244,1.77,2.108,2.572c0.86,0.793,1.918,1.463,3.175,2c0.132,0.066,0.355,0.157,0.657,0.256
			c0.306,0.1,0.62,0.199,0.942,0.281c0.317,0.084,0.633,0.157,0.938,0.224c0.307,0.074,0.559,0.107,0.761,0.107h6.146V89.633z"/>
	</g>
	<g>
		<path fill="#FEBE10" d="M110.382,98.728c0.189-0.416,0.097-1.037-0.205-1.38L99.523,85.255c-0.302-0.343-0.521-0.251-0.488,0.205
			l2.33,32.149c0.033,0.455,0.215,0.488,0.404,0.072L110.382,98.728z"/>
	</g>
	<g>
		<path fill="#FEBE10" d="M124.171,91.278c-0.237-0.45-0.847-0.792-1.354-0.76l-12.847,0.817c-0.508,0.031-0.576,0.289-0.152,0.57
			l21.832,14.498c0.424,0.281,0.576,0.145,0.339-0.307L124.171,91.278z"/>
	</g>
	<g>
		<path fill="#FEBE10" d="M128.345,81.352c-0.417-0.188-1.038-0.094-1.38,0.209l-6.932,6.133c-0.342,0.303-0.249,0.523,0.206,0.488
			l19.104-1.434c0.455-0.035,0.487-0.217,0.07-0.404L128.345,81.352z"/>
	</g>
	<g>
		<path fill="#FEBE10" d="M124.47,74.756c-0.456,0.016-0.971,0.375-1.144,0.799l-2.279,5.595c-0.173,0.423,0.009,0.579,0.401,0.347
			l11.215-6.632c0.394-0.232,0.342-0.409-0.114-0.394L124.47,74.756z"/>
	</g>
</g>
</svg>
