<?xml version="1.0" encoding="utf-8"?>
<!-- Generator: Adobe Illustrator 18.0.0, SVG Export Plug-In . SVG Version: 6.00 Build 0)  -->
<!DOCTYPE svg PUBLIC "-//W3C//DTD SVG 1.1//EN" "http://www.w3.org/Graphics/SVG/1.1/DTD/svg11.dtd">
<svg version="1.1"
	 id="Layer_1" xmlns:cc="http://creativecommons.org/ns#" xmlns:inkscape="http://www.inkscape.org/namespaces/inkscape" xmlns:rdf="http://www.w3.org/1999/02/22-rdf-syntax-ns#" xmlns:sodipodi="http://sodipodi.sourceforge.net/DTD/sodipodi-0.dtd" xmlns:dc="http://purl.org/dc/elements/1.1/" xmlns:svg="http://www.w3.org/2000/svg" inkscape:version="0.48.2 r9819" sodipodi:docname="letterhead-full.svg"
	 xmlns="http://www.w3.org/2000/svg" xmlns:xlink="http://www.w3.org/1999/xlink" x="0px" y="0px" viewBox="0 0 400 400"
	 enable-background="new 0 0 400 400" xml:space="preserve">
<sodipodi:namedview  borderopacity="1" guidetolerance="10" bordercolor="#666666" objecttolerance="10" id="namedview107" pagecolor="#ffffff" inkscape:zoom="2.8469321" inkscape:cy="92.043148" inkscape:cx="99.421342" gridtolerance="10" showgrid="false" inkscape:window-height="1006" inkscape:window-x="4" inkscape:window-y="0" inkscape:window-maximized="1" inkscape:current-layer="Layer_1" inkscape:pageshadow="2" inkscape:pageopacity="0" inkscape:window-width="1676">
	</sodipodi:namedview>
<g id="g3">
	<g id="g5">
		<path id="path7" inkscape:connector-curvature="0" fill="#FEBE10" d="M71.3,218.7c0.5,0.5,1.4,0.6,1.9,0.2l26.3-12.6
			c0.6-0.2,0.6-0.6-0.1-0.7l-56.5-11.8c-0.6-0.1-0.7,0.1-0.2,0.5L71.3,218.7z"/>
	</g>
	<g id="g9">
		<path id="path11" inkscape:connector-curvature="0" fill="#FEBE10" d="M71.1,190.1c0,0.7,0.6,1.4,1.3,1.6l29.6,10.8
			c0.7,0.2,0.9,0,0.5-0.6l-33.7-52.3c-0.3-0.6-0.6-0.5-0.6,0.2C68.2,149.7,71.1,190.1,71.1,190.1z"/>
	</g>
	<g id="g13">
		<path id="path15" inkscape:connector-curvature="0" fill="#FEBE10" d="M100.9,233c0.6-0.1,1.1-0.7,1.3-1.3l5.6-24.5
			c0.1-0.6-0.1-0.7-0.6-0.3l-38.2,32c-0.5,0.3-0.3,0.6,0.2,0.5L100.9,233z"/>
	</g>
	<g id="g17">
		<path id="path19" inkscape:connector-curvature="0" fill="#FFFFFF" d="M79.7,184.4l-7.4,3.7c-0.3-0.7-0.8-1.4-1.4-1.8
			c-0.6-0.5-1.1-0.9-1.7-1.3c-0.6-0.3-1.3-0.6-1.9-0.7c-0.7-0.1-1.3-0.2-1.8-0.2c-0.6,0-1.1,0-1.7,0.1c-0.6,0.1-1.1,0.2-1.6,0.6
			c-0.5,0.2-0.9,0.7-1.1,1.1c-0.3,0.6-0.5,1.1-0.5,2.1c0,0.6,0.2,1.3,0.6,1.9c0.3,0.7,1,1.3,1.9,1.8c0.1,0.1,0.3,0.1,0.5,0.2
			c0.1,0.1,0.3,0.2,0.5,0.2c0.8,0.5,1.6,0.8,2.4,1.3c0.8,0.5,1.6,0.8,2.4,1.3c0.2,0.1,0.5,0.2,0.7,0.3c0.3,0.1,0.6,0.2,0.7,0.3
			c0.3,0.1,0.7,0.3,1.1,0.6c0.5,0.2,0.8,0.5,1.1,0.6c1.3,0.7,2.2,1.5,3,2.3c0.8,0.8,1.4,1.7,1.8,2.6c0.5,0.9,0.7,1.8,0.9,2.7
			c0.2,0.9,0.2,1.9,0.2,2.9c0,1.1-0.1,2.2-0.5,3.2c-0.1,1-0.6,2.1-1.3,3c-0.6,0.9-1.5,1.7-2.5,2.5c-1,0.8-2.3,1.5-3.8,2.1
			c-0.3,0.1-0.8,0.2-1.3,0.3c-0.5,0.1-0.9,0.2-1.5,0.2c-0.5,0.1-1,0.1-1.5,0.1c-0.6,0-1,0-1.4,0c-0.5,0-0.8,0-1.1,0
			c-0.3,0-0.6,0-0.9-0.1c-0.3,0-0.6,0-0.7-0.1c-0.9-0.1-1.8-0.3-2.9-0.7c-1-0.3-2.1-0.8-3.1-1.3c-1-0.6-1.9-1.3-2.9-2.1
			c-0.9-0.8-1.7-1.8-2.4-3c-0.1-0.2-0.2-0.5-0.3-0.7c-0.1-0.2-0.2-0.5-0.3-0.7l7.2-3.7h0.1c0.3,0.7,0.8,1.4,1.4,1.8
			c0.6,0.5,1.1,0.9,1.7,1.3c0.6,0.3,1.3,0.6,1.9,0.7c0.7,0.1,1.3,0.2,1.7,0.2c0.6,0,1.3,0,1.8-0.1c0.6-0.1,1.1-0.2,1.6-0.6
			c0.5-0.2,0.9-0.7,1.1-1.1c0.3-0.5,0.5-1.1,0.5-1.9c0-1.7-1.1-3.1-3.4-4.2c-0.1,0-0.3-0.1-0.8-0.3c-0.3-0.2-0.8-0.5-1.3-0.7
			c-0.5-0.2-0.9-0.5-1.5-0.8c-0.6-0.2-1-0.5-1.4-0.7c-0.1-0.1-0.3-0.2-0.7-0.3c-0.2-0.1-0.6-0.2-0.8-0.3c-0.3-0.2-0.7-0.3-1.1-0.6
			c-0.5-0.2-0.8-0.5-1.1-0.6c-1.3-0.7-2.2-1.4-3-2.3c-0.8-0.8-1.4-1.7-1.8-2.6c-0.5-0.9-0.8-1.8-0.9-2.7c-0.2-0.9-0.2-1.9-0.2-2.9
			c0-0.1,0-0.5,0-1c0-0.6,0.1-1,0.2-1.5c0-0.1,0.1-0.2,0.1-0.5c0-0.2,0.1-0.5,0.1-0.6c0.1-0.2,0.2-0.5,0.3-0.8s0.2-0.6,0.5-0.9
			c0.3-0.7,0.8-1.3,1.4-1.8c0.6-0.6,1.1-1,1.7-1.5s1.3-0.9,1.9-1.3c0.7-0.3,1.3-0.6,1.8-0.8c0.9-0.3,1.8-0.6,2.7-0.7
			c0.9-0.1,1.9-0.2,2.7-0.2c0.5,0,0.8,0.1,1,0.1c0.3,0,0.6,0,0.9,0.1c0.3,0,0.6,0,0.8,0c0.9,0.1,1.8,0.3,2.9,0.7
			c1,0.3,2.1,0.8,3.1,1.4c1,0.6,1.9,1.3,2.9,2.2c0.9,0.8,1.7,1.8,2.4,3c0.1,0.2,0.2,0.5,0.3,0.7C79.5,183.9,79.6,184.2,79.7,184.4
			L79.7,184.4z"/>
		<path id="path21" inkscape:connector-curvature="0" fill="#FFFFFF" d="M120.9,190.1c0,1.7-0.2,3.4-0.8,4.9
			c-0.6,1.5-1.3,2.9-2.3,4.1c-0.9,1.3-2.1,2.3-3.3,3.1c-1.3,0.8-2.6,1.5-4.1,1.8c-0.3,0.1-0.8,0.2-1.5,0.3c-0.7,0.1-1.3,0.2-1.7,0.2
			h-7v13.7h-8.8v-42.8h15.7c0.2,0,0.6,0,1,0.1c0.3,0.1,0.8,0.1,1.1,0.2c0.5,0.1,0.8,0.2,1.1,0.2c0.3,0.1,0.6,0.1,0.8,0.2
			c1.1,0.5,2.2,0.9,3.1,1.5c0.9,0.6,1.9,1.4,3,2.5c0.7,0.8,1.4,1.7,1.9,2.7c0.6,1,0.9,1.9,1.3,2.9c0.2,0.7,0.3,1.4,0.5,2.1
			C120.8,188.7,120.9,189.4,120.9,190.1z M112.2,190.1c0-0.6-0.1-1.1-0.2-1.7c-0.2-0.6-0.5-1.1-0.8-1.6c-0.3-0.6-0.8-1-1.4-1.4
			c-0.6-0.5-1.1-0.7-1.9-0.9c-0.2-0.1-0.5-0.1-0.8-0.1c-0.3,0-0.5-0.1-0.5-0.1h-6.4v11.8h6.4c0.1,0,0.2,0,0.6-0.1s0.6-0.1,0.7-0.1
			c1.5-0.3,2.5-1.1,3.3-2.3C111.9,192.3,112.2,191.2,112.2,190.1z"/>
		<path id="path23" inkscape:connector-curvature="0" fill="#FFFFFF" d="M159.9,218.6h-9.7l-3.1-6.6h-14.8l-3.1,6.6h-9.6l20.2-43
			L159.9,218.6z"/>
		<path id="path25" inkscape:connector-curvature="0" fill="#FFFFFF" d="M195.8,218.6h-9.6l-7.4-16.5h-4.6v16.4h-8.8v-42.9h15.7
			c0.2,0,0.6,0,0.9,0.1s0.8,0.1,1.1,0.2c0.5,0.1,0.8,0.2,1.1,0.2c0.3,0.1,0.6,0.2,0.8,0.2c0.9,0.3,1.7,0.8,2.6,1.4
			c0.8,0.5,1.7,1.1,2.5,2.1c0.9,1,1.7,2.1,2.2,3.1c0.6,1.1,0.9,2.2,1,3.2c0.2,0.9,0.3,1.8,0.3,2.6c0,1.9-0.5,3.9-1.4,5.8
			s-2.5,3.8-4.8,5.4L195.8,218.6L195.8,218.6z M185.1,188.8c0-0.8-0.2-1.6-0.6-2.4c-0.5-0.8-1.1-1.5-2.3-1.9
			c-0.2-0.1-0.5-0.1-0.7-0.2c-0.3,0-0.5-0.1-0.6-0.1h-6.6v9.2h6.6c0.1,0,0.2,0,0.6-0.1c0.3-0.1,0.6-0.1,0.7-0.2c1-0.5,1.8-1,2.3-1.8
			C184.8,190.4,185.1,189.6,185.1,188.8L185.1,188.8z"/>
		<path id="path27" inkscape:connector-curvature="0" fill="#FFFFFF" d="M241.5,175.6L222,197.1l19.3,21.4h-11.8l-13.4-14.8v14.8
			h-8.8v-42.9h8.8v15l13.5-15H241.5L241.5,175.6z"/>
		<path id="path29" inkscape:connector-curvature="0" fill="#FFFFFF" d="M300.3,184.4l-7.4,3.7c-0.3-0.7-0.8-1.4-1.4-1.8
			c-0.6-0.5-1.1-0.9-1.7-1.3c-0.6-0.3-1.3-0.6-1.9-0.7c-0.7-0.1-1.3-0.2-1.8-0.2c-0.6,0-1.1,0-1.8,0.1c-0.6,0.1-1.1,0.2-1.6,0.6
			c-0.5,0.2-0.9,0.7-1.1,1.1c-0.3,0.6-0.5,1.1-0.5,2.1c0,0.6,0.2,1.3,0.6,1.9c0.3,0.7,1,1.3,1.9,1.8c0.1,0.1,0.3,0.1,0.5,0.2
			c0.1,0.1,0.3,0.2,0.5,0.2c0.8,0.5,1.6,0.8,2.4,1.3c0.8,0.5,1.6,0.8,2.4,1.3c0.2,0.1,0.5,0.2,0.7,0.3c0.3,0.1,0.6,0.2,0.7,0.3
			c0.3,0.1,0.7,0.3,1.1,0.6c0.5,0.2,0.8,0.5,1.1,0.6c1.1,0.7,2.2,1.5,3,2.3c0.8,0.8,1.4,1.7,1.8,2.6s0.7,1.8,0.9,2.7
			c0.2,0.9,0.2,1.9,0.2,2.9c0,1.1-0.1,2.2-0.5,3.2c-0.2,1-0.7,1.9-1.4,2.9c-0.6,0.9-1.5,1.7-2.5,2.5c-1,0.8-2.3,1.5-3.8,2.1
			c-0.3,0.1-0.8,0.2-1.3,0.3c-0.5,0.1-0.9,0.2-1.5,0.2c-0.5,0.1-1,0.1-1.5,0.1c-0.6,0-1,0-1.4,0c-0.5,0-0.8,0-1.1,0
			c-0.3,0-0.6,0-0.9-0.1c-0.3,0-0.6,0-0.7-0.1c-0.9-0.1-1.8-0.3-2.9-0.7c-1-0.3-2.1-0.8-3.1-1.3c-1-0.5-1.9-1.3-2.9-2.1
			c-0.9-0.8-1.7-1.8-2.4-3c-0.1-0.2-0.2-0.5-0.3-0.7c-0.1-0.2-0.2-0.5-0.3-0.7l7.2-3.7h0.1c0.3,0.7,0.8,1.4,1.4,1.8
			c0.6,0.5,1.1,0.9,1.7,1.3c0.6,0.3,1.3,0.6,1.8,0.7c0.7,0.1,1.3,0.2,1.8,0.2s1.3,0,1.8-0.1c0.6-0.1,1.1-0.2,1.6-0.6
			c0.5-0.2,0.9-0.7,1.1-1.1c0.3-0.5,0.5-1.1,0.5-1.9c0-1.7-1.1-3.1-3.4-4.2c-0.1,0-0.3-0.1-0.8-0.3c-0.3-0.2-0.8-0.5-1.3-0.7
			s-0.9-0.5-1.5-0.8c-0.6-0.2-1-0.5-1.4-0.7c-0.1-0.1-0.3-0.2-0.7-0.3c-0.2-0.1-0.6-0.2-0.8-0.3c-0.3-0.2-0.7-0.3-1.1-0.6
			s-0.8-0.5-1.1-0.6c-1.1-0.7-2.2-1.4-3-2.3c-0.8-0.8-1.4-1.7-1.8-2.6c-0.5-0.9-0.8-1.8-0.9-2.7c-0.2-0.9-0.2-1.9-0.2-2.9
			c0-0.1,0-0.5,0.1-1c0-0.6,0.1-1,0.2-1.5c0-0.1,0.1-0.2,0.1-0.5c0-0.2,0.1-0.5,0.1-0.6c0.1-0.2,0.2-0.5,0.3-0.8
			c0.1-0.3,0.2-0.6,0.5-0.9c0.3-0.7,0.8-1.3,1.4-1.8s1.1-1,1.7-1.5s1.3-0.9,1.9-1.3c0.7-0.3,1.3-0.6,1.8-0.8
			c0.9-0.3,1.8-0.6,2.7-0.7c0.9-0.1,1.9-0.2,2.7-0.2c0.5,0,0.8,0.1,1,0.1c0.3,0,0.6,0,0.9,0.1c0.3,0,0.6,0,0.8,0
			c0.9,0.1,1.8,0.3,2.9,0.7s2.1,0.8,3.1,1.4c1,0.6,1.9,1.3,2.9,2.2c0.9,0.8,1.7,1.8,2.4,3c0.1,0.2,0.2,0.5,0.3,0.7
			C300,183.9,300.1,184.2,300.3,184.4L300.3,184.4z"/>
		<path id="path31" inkscape:connector-curvature="0" fill="#FFFFFF" d="M334.5,218.5h-7.5c-0.1,0-0.2,0-0.6,0
			c-0.2,0-0.5-0.1-0.7-0.1c-0.7-0.1-1.4-0.2-2.1-0.3c-0.7-0.1-1.4-0.3-2.2-0.7c-2.6-0.9-4.8-2.2-6.6-3.8c-1.8-1.5-3.3-3.2-4.5-5
			c-1.1-1.8-2.1-3.8-2.5-5.7c-0.6-1.9-0.8-3.9-0.8-5.8c0-0.3,0-1,0.1-2.1c0.1-1,0.2-1.9,0.5-2.9c0.2-1.1,0.7-2.3,1.3-3.5
			c0.6-1.3,1.3-2.5,2.2-3.8c0.8-1.3,1.8-2.4,3-3.5c1.1-1.1,2.4-2.1,3.8-2.9c1.9-1.1,3.9-1.9,5.7-2.3c0.1,0,0.2,0,0.6-0.1
			c0.3-0.1,0.6-0.1,1-0.2c0.3-0.1,0.7-0.2,1.1-0.2c0.3,0,0.7-0.1,0.9-0.1h7.5v8.7h-7.1c-0.1,0-0.3,0-0.7,0.1
			c-0.3,0.1-0.7,0.1-0.9,0.2c-0.7,0.1-1.5,0.3-2.3,0.7c-0.8,0.5-1.7,0.9-2.5,1.5c-0.8,0.6-1.6,1.4-2.3,2.1c-0.7,0.8-1.1,1.6-1.5,2.4
			c-0.1,0.2-0.2,0.5-0.3,0.7c-0.1,0.2-0.2,0.5-0.3,0.7c-0.3,0.9-0.5,1.6-0.6,2.3c-0.1,0.6-0.1,1.3-0.1,2.1c0,1,0.1,2.2,0.5,3.3
			c0.2,1.1,0.7,2.3,1.4,3.3c0.6,1,1.4,2.1,2.4,3c1,0.9,2.2,1.7,3.7,2.3c0.1,0.1,0.5,0.2,0.8,0.3c0.3,0.1,0.7,0.2,1,0.3
			c0.3,0.1,0.7,0.2,1,0.2c0.3,0.1,0.7,0.1,0.9,0.1h7L334.5,218.5L334.5,218.5z"/>
	</g>
	<g id="g33">
		<path id="path35" inkscape:connector-curvature="0" fill="#FEBE10" d="M124.2,228.9c0.2-0.5,0.1-1.1-0.2-1.6l-12.2-13.7
			c-0.3-0.3-0.6-0.3-0.6,0.2l2.6,36.7c0,0.6,0.2,0.6,0.5,0.1L124.2,228.9z"/>
	</g>
	<g id="g37">
		<path id="path39" inkscape:connector-curvature="0" fill="#FEBE10" d="M139.9,220.4c-0.2-0.5-0.9-0.9-1.6-0.9l-14.6,0.9
			c-0.6,0-0.7,0.3-0.2,0.7l24.9,16.6c0.5,0.3,0.7,0.1,0.3-0.3C148.9,237.3,139.9,220.4,139.9,220.4z"/>
	</g>
	<g id="g41">
		<path id="path43" inkscape:connector-curvature="0" fill="#FEBE10" d="M144.7,209.1c-0.5-0.2-1.1-0.1-1.6,0.2l-7.9,7
			c-0.3,0.3-0.2,0.6,0.2,0.6l21.8-1.6c0.6,0,0.6-0.2,0.1-0.5L144.7,209.1L144.7,209.1z"/>
	</g>
	<g id="g45">
		<path id="path47" inkscape:connector-curvature="0" fill="#FEBE10" d="M140.2,201.5c-0.6,0-1.1,0.5-1.3,0.9l-2.6,6.4
			c-0.2,0.5,0,0.7,0.5,0.3l12.8-7.5c0.5-0.2,0.3-0.5-0.1-0.5L140.2,201.5L140.2,201.5z"/>
	</g>
</g>
<g enable-background="new    ">
	<path fill="#FFFFFF" d="M158.1,229.5c-0.5,0-0.8,0.1-1.1,0.3c-0.3,0.2-0.4,0.5-0.4,0.9s0.1,0.7,0.4,0.9c0.3,0.2,0.9,0.4,1.9,0.7
		c1,0.2,1.7,0.6,2.2,1c0.5,0.4,0.7,1,0.7,1.9c0,0.8-0.3,1.5-0.9,2c-0.6,0.5-1.4,0.8-2.4,0.8c-1.5,0-2.8-0.5-3.9-1.5l1-1.2
		c1,0.8,1.9,1.2,3,1.2c0.5,0,0.9-0.1,1.2-0.3c0.3-0.2,0.5-0.5,0.5-0.9c0-0.4-0.1-0.6-0.4-0.9c-0.3-0.2-0.8-0.4-1.5-0.6
		c-0.7-0.2-1.2-0.3-1.6-0.5s-0.7-0.3-1-0.5c-0.6-0.4-0.8-1.1-0.8-1.9c0-0.9,0.3-1.5,1-2c0.6-0.5,1.4-0.7,2.4-0.7
		c0.6,0,1.2,0.1,1.8,0.3c0.6,0.2,1.1,0.5,1.5,0.8l-0.9,1.2c-0.3-0.3-0.7-0.5-1.1-0.6C159,229.6,158.5,229.5,158.1,229.5z"/>
	<path fill="#FFFFFF" d="M167.3,229.7v8h-1.6v-8h-2.9v-1.5h7.3v1.5H167.3z"/>
	<path fill="#FFFFFF" d="M174,235.5c0.4,0.5,1,0.8,1.8,0.8c0.7,0,1.3-0.3,1.8-0.8s0.6-1.2,0.6-2.1v-5.2h1.6v5.3
		c0,1.4-0.4,2.4-1.1,3.1c-0.7,0.7-1.7,1.1-2.9,1.1s-2.1-0.4-2.9-1.1s-1.1-1.8-1.1-3.1v-5.3h1.6v5.2C173.4,234.3,173.6,235,174,235.5
		z"/>
	<path fill="#FFFFFF" d="M189.4,229.5c0.9,0.8,1.4,2,1.4,3.4s-0.4,2.6-1.3,3.5c-0.9,0.9-2.2,1.3-4,1.3h-3.1v-9.4h3.2
		C187.2,228.2,188.5,228.7,189.4,229.5z M189.1,233c0-2.2-1.2-3.2-3.7-3.2h-1.6v6.5h1.8c1.1,0,2-0.3,2.6-0.8
		C188.8,234.8,189.1,234,189.1,233z"/>
	<path fill="#FFFFFF" d="M199.4,228.2v1.5h-5v2.5h4.5v1.4h-4.5v2.5h5.2v1.5h-6.8v-9.4H199.4z"/>
	<path fill="#FFFFFF" d="M208.7,228.2h1.6v9.4h-1.7l-5.3-6.9v6.9h-1.6v-9.4h1.6l5.5,7V228.2z"/>
	<path fill="#FFFFFF" d="M216.5,229.7v8h-1.6v-8H212v-1.5h7.3v1.5H216.5z"/>
	<path fill="#FFFFFF" d="M224.8,228.2h1.6v9.4h-1.6V228.2z"/>
	<path fill="#FFFFFF" d="M236.1,228.2h1.6v9.4h-1.7l-5.3-6.9v6.9H229v-9.4h1.6l5.5,7V228.2z"/>
	<path fill="#FFFFFF" d="M247.3,228.2h1.6v9.4h-1.7l-5.3-6.9v6.9h-1.6v-9.4h1.6l5.5,7V228.2z"/>
	<path fill="#FFFFFF" d="M259.5,236.4c-1,0.9-2.1,1.4-3.5,1.4s-2.6-0.5-3.5-1.4s-1.4-2.1-1.4-3.5c0-1.4,0.5-2.6,1.4-3.5
		s2.1-1.4,3.5-1.4s2.6,0.5,3.5,1.4s1.4,2.1,1.4,3.5C260.9,234.3,260.4,235.4,259.5,236.4z M258.3,230.5c-0.6-0.7-1.4-1-2.4-1
		c-0.9,0-1.7,0.3-2.4,1s-1,1.5-1,2.4c0,1,0.3,1.8,1,2.4s1.4,1,2.4,1c0.9,0,1.7-0.3,2.4-1s1-1.5,1-2.4
		C259.3,231.9,258.9,231.1,258.3,230.5z"/>
	<path fill="#FFFFFF" d="M267,237.7h-1.8l-3.8-9.4h1.8l2.9,7l2.9-7h1.8L267,237.7z"/>
	<path fill="#FFFFFF" d="M273,235.5l-0.9,2.1h-1.7l4.2-9.4h1.7l4.2,9.4h-1.7l-0.9-2.1H273z M277.1,234.1l-1.7-3.9l-1.7,3.9H277.1z"
		/>
	<path fill="#FFFFFF" d="M284.5,229.7v8h-1.6v-8H280v-1.5h7.3v1.5H284.5z"/>
	<path fill="#FFFFFF" d="M289.1,228.2h1.6v9.4h-1.6V228.2z"/>
	<path fill="#FFFFFF" d="M301.2,236.4c-1,0.9-2.1,1.4-3.5,1.4s-2.6-0.5-3.5-1.4s-1.4-2.1-1.4-3.5c0-1.4,0.5-2.6,1.4-3.5
		s2.1-1.4,3.5-1.4s2.6,0.5,3.5,1.4s1.4,2.1,1.4,3.5C302.6,234.3,302.1,235.4,301.2,236.4z M300,230.5c-0.6-0.7-1.4-1-2.4-1
		c-0.9,0-1.7,0.3-2.4,1s-1,1.5-1,2.4c0,1,0.3,1.8,1,2.4s1.4,1,2.4,1c0.9,0,1.7-0.3,2.4-1s1-1.5,1-2.4
		C301,231.9,300.7,231.1,300,230.5z"/>
	<path fill="#FFFFFF" d="M311.7,228.2h1.6v9.4h-1.7l-5.3-6.9v6.9h-1.6v-9.4h1.6l5.5,7V228.2z"/>
	<path fill="#FFFFFF" d="M320.9,235.5l-0.9,2.1h-1.7l4.2-9.4h1.7l4.2,9.4h-1.7l-0.9-2.1H320.9z M325,234.1l-1.7-3.9l-1.7,3.9H325z"
		/>
	<path fill="#FFFFFF" d="M332.4,229.7v8h-1.6v-8H328v-1.5h7.3v1.5H332.4z"/>
	<path fill="#FFFFFF" d="M342.9,235.5c0.4,0.5,1,0.8,1.8,0.8c0.7,0,1.3-0.3,1.8-0.8c0.4-0.5,0.6-1.2,0.6-2.1v-5.2h1.6v5.3
		c0,1.4-0.4,2.4-1.1,3.1s-1.7,1.1-2.9,1.1s-2.1-0.4-2.9-1.1s-1.1-1.8-1.1-3.1v-5.3h1.6v5.2C342.2,234.3,342.4,235,342.9,235.5z"/>
	<path fill="#FFFFFF" d="M354,229.5c-0.5,0-0.8,0.1-1.1,0.3c-0.3,0.2-0.4,0.5-0.4,0.9s0.1,0.7,0.4,0.9c0.3,0.2,0.9,0.4,1.9,0.7
		c1,0.2,1.7,0.6,2.2,1c0.5,0.4,0.7,1,0.7,1.9c0,0.8-0.3,1.5-0.9,2c-0.6,0.5-1.4,0.8-2.4,0.8c-1.5,0-2.8-0.5-3.9-1.5l1-1.2
		c1,0.8,1.9,1.2,3,1.2c0.5,0,0.9-0.1,1.2-0.3c0.3-0.2,0.5-0.5,0.5-0.9c0-0.4-0.1-0.6-0.4-0.9c-0.3-0.2-0.8-0.4-1.5-0.6
		c-0.7-0.2-1.2-0.3-1.6-0.5c-0.4-0.1-0.7-0.3-1-0.5c-0.6-0.4-0.8-1.1-0.8-1.9c0-0.9,0.3-1.5,1-2c0.6-0.5,1.4-0.7,2.4-0.7
		c0.6,0,1.2,0.1,1.8,0.3c0.6,0.2,1.1,0.5,1.5,0.8l-0.8,1.2c-0.3-0.3-0.7-0.5-1.1-0.6C354.9,229.6,354.4,229.5,354,229.5z"/>
	<path fill="#FFFFFF" d="M363.9,236.2c0.5,0,1-0.1,1.4-0.3c0.4-0.2,0.8-0.5,1.2-0.9l1,1.1c-1,1.1-2.2,1.7-3.6,1.7s-2.6-0.5-3.6-1.4
		s-1.4-2.1-1.4-3.5s0.5-2.6,1.4-3.5c1-0.9,2.2-1.4,3.6-1.4c1.5,0,2.7,0.5,3.7,1.6l-1,1.1c-0.5-0.4-0.9-0.7-1.3-0.9s-0.9-0.3-1.4-0.3
		c-1,0-1.8,0.3-2.4,0.9c-0.6,0.6-1,1.4-1,2.4c0,1,0.3,1.8,1,2.4C362.3,235.9,363,236.2,363.9,236.2z"/>
</g>
</svg>
